<svg id="Layer_1" version="1.1" viewBox="0 0 32 32" xml:space="preserve" xmlns="http://www.w3.org/2000/svg" fill="#858d94" enable-background="new 0 0 32 32"><g id="ball"><path d="m13.8 12 2.3 2.4 9.2-8.9c-1.8-1.6-3.9-2.7-6.2-3.2-.8 3.4-2.7 6.9-5.3 9.7zM2 16.2c2.9-.6 5.9-2.1 8.4-4.3l-5-5.2C3.1 9.4 2 12.8 2 16.2zM14.3 16 12 13.6c-2.9 2.5-6.4 4.3-9.8 4.9.4 2.3 1.4 4.4 2.9 6.3l9.2-8.8zM19.8 21.6c-2.3 2.5-4 5.5-4.6 8.4 3.4.2 6.9-.8 9.7-3.1l-5.1-5.3zM26.9 7.2 17.6 16l2.2 2.3c2.9-2.6 6.5-4.3 9.9-4.9-.4-2.3-1.3-4.4-2.8-6.2zM7.2 5.1l5 5.2C14.4 7.9 16 4.9 16.8 2c-3.4-.2-6.8.9-9.6 3.1zM18.1 19.9 16 17.6l-9.2 8.9c1.8 1.6 3.9 2.6 6 3.1.8-3.4 2.7-6.8 5.3-9.7zM30 15.7c-3 .6-6 2.1-8.6 4.3l5.1 5.3c2.4-2.8 3.6-6.2 3.5-9.6z"></path></g></svg>